{"title":"Fantastic Four {2015} HDTS XViD MP3-MRG","uid":12221950,"size":1436998243,"categoryP":"video","categoryS":"movies","magnet":"?xt=urn:btih:e450ca1402d8a9c587a19301f88b057e977b34fa&amp;dn=Fantastic+Four+%7B2015%7D+HDTS+XViD+MP3-MRG&amp;tr=udp%3A%2F%2Ftracker.openbittorrent.com%3A80&amp;tr=udp%3A%2F%2Fopen.demonii.com%3A1337&amp;tr=udp%3A%2F%2Ftracker.coppersurfer.tk%3A6969&amp;tr=udp%3A%2F%2Fexodus.desync.com%3A6969","seeders":4,"leechers":7,"uploader":"SaM","files":14,"time":1439378243,"description":"Fantastic Four {2015} HDTS XViD MP3-MRG\n\nFormat : AVI\nFormat/Info : Audio Video Interleave\nFile size : 1.34 GiB\nDuration : 1h 32mn\nOverall bit rate : 2 069 Kbps\nWriting library : VirtualDub build 35491/release\n\nVideo\nID : 0\nFormat : MPEG-4 Visual\nFormat profile : Advanced Simple@L5\nFormat settings, BVOP : 2\nFormat settings, QPel : No\nFormat settings, GMC : No warppoints\nFormat settings, Matrix : Default (H.263)\nMuxing mode : Packed bitstream\nCodec ID : XVID\nCodec ID/Hint : XviD\nDuration : 1h 32mn\nBit rate : 1 835 Kbps\nWidth : 720 pixels\nHeight : 300 pixels\nDisplay aspect ratio : 2.40:1\nFrame rate : 25.000 fps\nColor space : YUV\nChroma subsampling : 4:2:0\nBit depth : 8 bits\nScan type : Progressive\nCompression mode : Lossy\nBits/(Pixel*Frame) : 0.340\nStream size : 1.19 GiB (89%)\nWriting library : XviD 67\n\nAudio : cm8\nID : 1\nFormat : MPEG Audio\nFormat version : Version 1\nFormat profile : Layer 3\nCodec ID : 55\nCodec ID/Hint : MP3\nDuration : 1h 32mn\nBit rate mode : Constant\nBit rate : 224 Kbps\nChannel(s) : 2 channels\nSampling rate : 48.0 KHz\nCompression mode : Lossy\nStream size : 148 MiB (11%)\nAlignment : Split accross interleaves\nInterleave, duration : 40 ms (1.00 video frame)\nInterleave, preload duratio : 500 ms\n &lt;a href=&quot;\nhttp://extraimago.com/image/q2Z&quot; rel=&quot;nofollow&quot; target=&quot;_NEW&quot;&gt;\nhttp://extraimago.com/image/q2Z&lt;/a&gt; &lt;a href=&quot;\nhttp://extraimago.com/image/q24&quot; rel=&quot;nofollow&quot; target=&quot;_NEW&quot;&gt;\nhttp://extraimago.com/image/q24&lt;/a&gt; &lt;a href=&quot;\nhttp://extraimago.com/image/q2B&quot; rel=&quot;nofollow&quot; target=&quot;_NEW&quot;&gt;\nhttp://extraimago.com/image/q2B&lt;/a&gt; &lt;a href=&quot;\nhttp://extraimago.com/image/q2e&quot; rel=&quot;nofollow&quot; target=&quot;_NEW&quot;&gt;\nhttp://extraimago.com/image/q2e&lt;/a&gt; &lt;a href=&quot;\nhttp://extraimago.com/image/q2C&quot; rel=&quot;nofollow&quot; target=&quot;_NEW&quot;&gt;\nhttp://extraimago.com/image/q2C&lt;/a&gt; &lt;a href=&quot;\nhttp://extraimago.com/image/q2Y&quot; rel=&quot;nofollow&quot; target=&quot;_NEW&quot;&gt;\nhttp://extraimago.com/image/q2Y&lt;/a&gt; &lt;a href=&quot;\nhttp://extraimago.com/image/q2p&quot; rel=&quot;nofollow&quot; target=&quot;_NEW&quot;&gt;\nhttp://extraimago.com/image/q2p&lt;/a&gt; &lt;a href=&quot;\nhttp://extraimago.com/image/q2r&quot; rel=&quot;nofollow&quot; target=&quot;_NEW&quot;&gt;\nhttp://extraimago.com/image/q2r&lt;/a&gt; &lt;a href=&quot;\nhttp://extraimago.com/image/q2G&quot; rel=&quot;nofollow&quot; target=&quot;_NEW&quot;&gt;\nhttp://extraimago.com/image/q2G&lt;/a&gt; &lt;a href=&quot;\nhttp://extraimago.com/image/q2P&quot; rel=&quot;nofollow&quot; target=&quot;_NEW&quot;&gt;\nhttp://extraimago.com/image/q2P&lt;/a&gt;","torrent":{"xt":"urn:btih:e450ca1402d8a9c587a19301f88b057e977b34fa","amp;dn":"Fantastic+Four+%7B2015%7D+HDTS+XViD+MP3-MRG","amp;tr":["udp%3A%2F%2Ftracker.openbittorrent.com%3A80","udp%3A%2F%2Fopen.demonii.com%3A1337","udp%3A%2F%2Ftracker.coppersurfer.tk%3A6969","udp%3A%2F%2Fexodus.desync.com%3A6969"],"infoHash":"e450ca1402d8a9c587a19301f88b057e977b34fa","infoHashBuffer":{"type":"Buffer","data":[228,80,202,20,2,216,169,197,135,161,147,1,248,139,5,126,151,123,52,250]},"announce":[],"urlList":[]}}